<?xml version="1.0" encoding="utf-8"?>
<!-- Stylized bird illustration for background use -->
<svg xmlns="http://www.w3.org/2000/svg" viewBox="0 0 1200 800" preserveAspectRatio="xMidYMid meet">
  <defs>
    <linearGradient id="g1" x1="0" x2="1">
      <stop offset="0%" stop-color="#f6e7c8"/>
      <stop offset="100%" stop-color="#d9b07a"/>
    </linearGradient>
    <linearGradient id="g2" x1="0" x2="1">
      <stop offset="0%" stop-color="#8bb69b"/>
      <stop offset="100%" stop-color="#3f6f5e"/>
    </linearGradient>
  </defs>
  <g fill="none" fill-rule="evenodd">
    <rect width="1200" height="800" fill="transparent"/>
    <g transform="translate(120 60) scale(0.86)">
      <path d="M870 220c-80 10-140 70-210 110-60 34-140 54-220 36-64-15-126-56-172-102-32-32-84-34-118-4-28 26-38 70-16 100 18 24 48 38 78 48 34 12 68 22 102 30 52 12 104 22 154 40 56 20 108 52 166 66 64 16 130 6 192-12 58-17 114-44 160-88 44-42 76-96 86-156 8-48-10-94-48-118-28-18-62-18-92-10z" fill="url(#g2)" opacity="0.95"/>
      <path d="M320 140c40-10 86-18 126 2 44 22 72 74 106 108 42 40 100 64 156 74 54 10 112 8 162-12 30-12 58-34 78-60 20-28 30-60 22-92-8-34-40-58-74-56-36 2-66 30-94 52-40 30-84 54-132 66-54 14-110 10-162-12-44-18-82-48-126-62-18-6-38-10-54-18-6-4-10-8-14-14-6-10-4-24 2-34 6-12 22-22 36-26z" fill="url(#g1)" opacity="0.9"/>
      <path d="M200 420c30-22 62-42 98-54 36-12 74-18 112-18 54 0 108 12 158 36 44 20 82 48 126 68 40 18 86 26 130 18 36-6 70-24 98-46 8-6 14-14 18-22 6-12 4-26-6-36-10-12-28-16-42-8-22 12-40 30-58 46-38 32-78 56-122 66-56 12-112 4-164-16-46-18-88-44-132-66-28-14-56-26-86-34-26-8-54-8-80 0-26 8-50 22-74 36-12 6-24 14-34 24-6 6-10 12-12 18-2 8 0 16 8 22 8 6 18 6 26 2z" fill="#ffffff" opacity="0.12"/>
    </g>
  </g>
</svg>
